<svg xmlns="http://www.w3.org/2000/svg" width="1280" height="360" viewBox="0 0 1280 360" role="img" aria-labelledby="title desc">
<title id="title">Add Computer to AD Group</title>
<desc id="desc">Kerberos + LDAPS membership automation for ConfigMgr OSD</desc>
<defs>
  <linearGradient id="g" x1="0" x2="1" y1="0" y2="1"><stop offset="0" stop-color="#7C3AED"/><stop offset="1" stop-color="#2563EB"/></linearGradient>
  <radialGradient id="r" cx="85%" cy="20%" r="65%"><stop offset="0" stop-color="rgba(255,255,255,.30)"/><stop offset="1" stop-color="rgba(255,255,255,0)"/></radialGradient>
  <filter id="shadow" x="-10%" y="-10%" width="120%" height="120%"><feDropShadow dx="0" dy="18" stdDeviation="18" flood-color="#0f172a" flood-opacity=".32"/></filter>
</defs>
<rect width="1280" height="360" rx="34" fill="url(#g)"/>
<rect width="1280" height="360" rx="34" fill="url(#r)"/>
<circle cx="1120" cy="80" r="190" fill="rgba(255,255,255,.10)"/>
<circle cx="1040" cy="310" r="150" fill="rgba(255,255,255,.07)"/>
<g filter="url(#shadow)"><path d="M154 67l42 16v32c0 29-18 55-42 65-24-10-42-36-42-65V83l42-16z" fill="rgba(255,255,255,.14)" stroke="rgba(255,255,255,.55)" stroke-width="3"/><path d="M138 121l12 12 28-32" fill="none" stroke="#fff" stroke-width="7" stroke-linecap="round" stroke-linejoin="round"/></g>
<text x="250" y="145" font-family="Segoe UI, Inter, Arial, sans-serif" font-size="52" font-weight="700" fill="#fff">Add Computer to AD Group</text>
<text x="252" y="205" font-family="Segoe UI, Inter, Arial, sans-serif" font-size="26" fill="rgba(255,255,255,.88)">Kerberos + LDAPS membership automation for ConfigMgr OSD</text>
<g transform="translate(252 242)">
  <rect width="160" height="34" rx="17" fill="rgba(255,255,255,.18)"/>
  <text x="80" y="23" text-anchor="middle" font-family="Segoe UI, Inter, Arial" font-size="16" fill="#fff">PowerShell 5.1</text>
  <rect x="178" width="190" height="34" rx="17" fill="rgba(255,255,255,.18)"/>
  <text x="273" y="23" text-anchor="middle" font-family="Segoe UI, Inter, Arial" font-size="16" fill="#fff">ConfigMgr Task Sequence</text>
  <rect x="386" width="150" height="34" rx="17" fill="rgba(255,255,255,.18)"/>
  <text x="461" y="23" text-anchor="middle" font-family="Segoe UI, Inter, Arial" font-size="16" fill="#fff">MIT Licensed</text>
</g>
</svg>
